<?xml version="1.0" encoding="utf-8"?>
<!-- Generator: Adobe Illustrator 16.0.0, SVG Export Plug-In . SVG Version: 6.00 Build 0)  -->
<!DOCTYPE svg PUBLIC "-//W3C//DTD SVG 1.1//EN" "http://www.w3.org/Graphics/SVG/1.1/DTD/svg11.dtd">
<svg version="1.1" id="Layer_1" xmlns="http://www.w3.org/2000/svg" xmlns:xlink="http://www.w3.org/1999/xlink" x="0px" y="0px"
	 width="300px" height="100px" viewBox="0 0 300 100" enable-background="new 0 0 300 100" xml:space="preserve">
<g>
	<g>
		<path fill="#8BC34A" d="M32.368,8.476h5.185v23.668h0.134c2.859-3.325,6.648-5.319,11.169-5.319
			c9.773,0,16.355,6.915,16.355,16.355c0,9.307-6.849,16.355-15.558,16.355c-5.584,0-10.039-2.792-11.966-6.315h-0.134v5.518h-5.185
			V8.476z M48.59,54.748c6.714,0,11.036-5.053,11.036-11.568S55.305,31.612,48.59,31.612c-6.715,0-11.037,5.053-11.037,11.568
			S41.875,54.748,48.59,54.748z"/>
		<path fill="#8BC34A" d="M101.045,53.086c-3.656,4.721-8.044,6.449-13.828,6.449c-9.773,0-15.757-7.313-15.757-16.355
			c0-9.64,6.781-16.355,15.956-16.355c8.776,0,14.759,5.983,14.759,16.289v1.662h-25.13c0.399,5.385,4.521,9.972,10.172,9.972
			c4.454,0,7.446-1.596,9.906-4.72L101.045,53.086z M96.591,40.388c-0.2-5.253-3.657-8.776-9.374-8.776
			c-5.718,0-9.507,3.523-10.172,8.776H96.591z"/>
	</g>
	<g>
		<path fill="#4CAF50" d="M144.35,35.401c-2.194-2.659-4.721-3.79-7.845-3.79c-6.981,0-10.504,5.186-10.504,11.568
			c0,6.383,4.188,11.568,10.504,11.568c3.391,0,5.984-1.196,7.911-3.856l3.856,3.657c-2.992,3.458-7.247,4.986-11.768,4.986
			c-9.64,0-16.089-6.78-16.089-16.355c0-9.44,6.516-16.355,16.089-16.355c4.587,0,8.842,1.529,11.967,4.92L144.35,35.401z"/>
		<path fill="#4CAF50" d="M154.721,8.476h5.186v50.261h-5.186V8.476z"/>
		<path fill="#4CAF50" d="M198.001,53.086c-3.656,4.721-8.045,6.449-13.827,6.449c-9.774,0-15.758-7.313-15.758-16.355
			c0-9.64,6.782-16.355,15.956-16.355c8.776,0,14.759,5.983,14.759,16.289v1.662h-25.13c0.398,5.385,4.521,9.972,10.173,9.972
			c4.453,0,7.445-1.596,9.904-4.72L198.001,53.086z M193.547,40.388c-0.2-5.253-3.656-8.776-9.373-8.776
			c-5.719,0-9.508,3.523-10.173,8.776H193.547z"/>
		<path fill="#4CAF50" d="M206.776,31.612c3.191-3.257,7.846-4.787,12.366-4.787c9.176,0,13.031,4.388,13.031,13.164v13.363
			c0,1.795,0.2,3.789,0.465,5.385h-4.985c-0.333-1.396-0.333-3.324-0.333-4.654h-0.133c-2.061,3.191-5.519,5.452-10.238,5.452
			c-6.316,0-11.568-3.191-11.568-9.241c0-10.305,11.967-10.904,19.613-10.904h1.994v-0.93c0-4.521-2.859-6.848-7.713-6.848
			c-3.323,0-6.78,1.13-9.24,3.391L206.776,31.612z M221.803,43.778c-6.582,0-10.837,1.795-10.837,5.984
			c0,3.922,2.925,5.385,6.848,5.385c5.983,0,9.042-4.322,9.175-9.375v-1.995H221.803z"/>
		<path fill="#4CAF50" d="M241.682,35.002c0-2.858-0.267-5.318-0.267-7.379h4.92c0,1.662,0.134,3.391,0.134,5.119h0.133
			c1.396-3.058,5.252-5.917,10.371-5.917c8.177,0,11.834,5.186,11.834,12.698v19.214h-5.187V40.055c0-5.185-2.259-8.443-7.113-8.443
			c-6.714,0-9.64,4.854-9.64,11.968v15.158h-5.186V35.002z"/>
	</g>
	<g>
		<path fill="#757575" d="M125.142,82.602v2.366h-0.774V68.706h0.774v8.713h0.065c0.86-1.764,2.517-2.689,4.259-2.689
			c2.99,0,5.012,2.258,5.012,5.271c0,2.989-2.065,5.249-5.012,5.249c-1.742,0-3.485-0.926-4.259-2.647H125.142z M129.401,75.397
			c-2.452,0-4.281,2.064-4.281,4.603c0,2.516,1.829,4.581,4.281,4.581c2.646,0,4.28-2.086,4.28-4.581
			C133.682,77.525,132.047,75.397,129.401,75.397z"/>
		<path fill="#757575" d="M136.329,90.023l0.129-0.709c0.236,0.085,0.581,0.15,0.882,0.15c1.14,0,1.656-0.904,2.022-1.872
			l0.904-2.431l-4.023-10.131h0.86l3.571,9.271l3.398-9.271h0.839l-4.947,12.992c-0.516,1.333-1.248,2.129-2.625,2.129
			C137.039,90.152,136.608,90.109,136.329,90.023z"/>
		<path fill="#757575" d="M151.604,84.968h-0.883l6.582-15.228h0.882l6.41,15.228h-0.883l-1.763-4.259h-8.562L151.604,84.968z
			 M153.688,80h7.959l-3.936-9.529L153.688,80z"/>
		<path fill="#757575" d="M178.513,83.85h0.044V69.74h0.816v15.228h-1.074l-10.304-14.153h-0.043v14.153h-0.818V69.74h1.076
			L178.513,83.85z"/>
		<path fill="#757575" d="M191.076,84.968c-0.042-0.559-0.086-1.698-0.086-2.323h-0.042c-0.582,1.636-2.151,2.604-3.765,2.604
			c-2.689,0-3.636-2.001-3.636-4.195v-6.022h0.774v5.807c0,1.786,0.604,3.765,2.969,3.765c2.001,0,3.679-1.635,3.679-4.711v-4.86
			h0.773v7.528c0,0.603,0.044,1.807,0.108,2.408H191.076z"/>
		<path fill="#757575" d="M200.048,75.676h-2.883v6.969c0,1.378,0.71,1.852,1.721,1.852c0.388,0,0.817-0.087,1.141-0.237
			l0.064,0.667c-0.388,0.15-0.882,0.258-1.377,0.258c-1.397,0-2.323-0.817-2.323-2.409v-7.099h-2.128v-0.645h2.107v-2.904h0.795
			v2.904h2.883V75.676z"/>
		<path fill="#757575" d="M202.63,75.031h0.753c0.043,0.537,0.086,1.678,0.086,2.323h0.043c0.559-1.765,1.914-2.625,3.354-2.625
			c0.216,0,0.388,0,0.582,0.043l-0.065,0.71c-0.129-0.021-0.344-0.042-0.517-0.042c-2.193,0-3.354,2.064-3.354,4.624v4.903h-0.796
			v-7.528C202.716,76.838,202.694,75.612,202.63,75.031z"/>
		<path fill="#757575" d="M210.18,71.567c-0.345,0-0.666-0.279-0.666-0.71c0-0.387,0.321-0.688,0.666-0.688
			c0.323,0,0.646,0.301,0.646,0.688C210.826,71.288,210.503,71.567,210.18,71.567z M210.567,84.968h-0.775v-9.937h0.775V84.968z"/>
		<path fill="#757575" d="M221.903,76.644c-0.667-0.774-1.699-1.246-2.796-1.246c-2.646,0-4.323,2.107-4.323,4.603
			c0,2.516,1.677,4.561,4.323,4.561c1.16,0,2.172-0.432,2.947-1.163l0.473,0.474c-0.903,0.947-2.064,1.378-3.42,1.378
			c-3.011,0-5.142-2.195-5.142-5.249c0-3.032,2.131-5.271,5.142-5.271c1.312,0,2.517,0.495,3.334,1.42L221.903,76.644z"/>
		<path fill="#757575" d="M225.647,71.567c-0.345,0-0.667-0.279-0.667-0.71c0-0.387,0.322-0.688,0.667-0.688
			c0.322,0,0.645,0.301,0.645,0.688C226.292,71.288,225.97,71.567,225.647,71.567z M226.035,84.968h-0.774v-9.937h0.774V84.968z"/>
		<path fill="#757575" d="M234.66,85.249c-3.054,0-5.228-2.217-5.228-5.271c0-3.055,2.174-5.249,5.228-5.249
			c3.076,0,5.248,2.194,5.248,5.249C239.908,83.032,237.736,85.249,234.66,85.249z M234.66,75.397c-2.732,0-4.409,2.042-4.409,4.581
			c0,2.537,1.677,4.603,4.409,4.603c2.731,0,4.431-2.065,4.431-4.603C239.091,77.439,237.392,75.397,234.66,75.397z"/>
		<path fill="#757575" d="M244.019,75.031c0.043,0.537,0.086,1.678,0.086,2.323h0.044c0.58-1.636,2.107-2.625,3.721-2.625
			c2.688,0,3.699,2,3.699,4.195v6.043h-0.774v-5.829c0-1.784-0.624-3.741-2.99-3.741c-1.979,0-3.655,1.634-3.655,4.56v5.011h-0.797
			v-7.528c0-0.602-0.021-1.827-0.086-2.408H244.019z"/>
		<path fill="#757575" d="M254.926,82.344c0-2.861,3.204-3.291,5.678-3.291h1.42v-0.645c0-2.065-1.183-3.011-3.033-3.011
			c-1.184,0-2.237,0.472-3.011,1.183l-0.431-0.561c0.883-0.795,2.172-1.29,3.484-1.29c2.237,0,3.743,1.161,3.743,3.636v4.366
			c0,0.753,0.063,1.7,0.172,2.236h-0.73c-0.087-0.536-0.151-1.57-0.151-2.128h-0.063c-0.668,1.656-2.131,2.409-3.723,2.409
			C256.689,85.249,254.926,84.389,254.926,82.344z M262.023,80.258v-0.58h-1.204c-2.237,0-5.12,0.322-5.12,2.646
			c0,1.699,1.506,2.279,2.71,2.279C261.034,84.603,262.023,82.431,262.023,80.258z"/>
		<path fill="#757575" d="M267.64,84.968h-0.774V68.706h0.774V84.968z"/>
	</g>
</g>
</svg>
