<?xml version="1.0" encoding="utf-8"?>
<!-- Generator: Adobe Illustrator 16.0.0, SVG Export Plug-In . SVG Version: 6.00 Build 0)  -->
<!DOCTYPE svg PUBLIC "-//W3C//DTD SVG 1.1//EN" "http://www.w3.org/Graphics/SVG/1.1/DTD/svg11.dtd">
<svg version="1.1" id="Layer_1" xmlns="http://www.w3.org/2000/svg" xmlns:xlink="http://www.w3.org/1999/xlink" x="0px" y="0px"
	 width="1928px" height="789.326px" viewBox="0 0 1928 789.326" enable-background="new 0 0 1928 789.326" xml:space="preserve">
<g>
	<g>
		<g>
			<path fill-rule="evenodd" clip-rule="evenodd" fill="#64AB45" d="M387.723,329.948c0.182-12.896,1.188-25.501,2.561-38.001
				c3.142-28.154,8.677-55.867,23.626-80.644c10.186-16.75,24.389-28.375,43.312-34.086c5.169-1.608,6.754-0.865,6.647,4.445
				c-0.146,5.779,2.059,11.108,2.241,16.818c0.077,2.325-0.037,3.645-2.714,3.987c-16.833,2.043-27.155,12.953-34.353,26.84
				c-14.409,27.964-18.679,58.539-21.347,89.426c-0.038,0.793,0,1.59,0,2.402c0.107,0.324,0.289,0.576,0.58,1.189
				c3.827-1.807,5.488-5.668,8.165-8.451c22.543-23.642,50.431-35.077,82.832-36.198c13.509-0.465,26.911,0.729,39.918,4.445
				c11.954,3.4,23.038,9.156,33.087,16.601c25.211,18.731,39.011,44.793,47.572,74.362c6.754,23.264,9.141,46.886,8.523,71.019
				c-0.542,19.647-3.614,38.904-7.182,58.269c-3.256,17.732-7.662,35.252-13.083,52.413c-7.12,22.429-15.43,44.431-26.118,65.526
				c-9.172,17.984-20.112,34.536-34.277,48.876c-19.402,19.653-42.738,30.556-70.732,28.787
				c-14.227-0.869-28.322-3.065-41.321-9.423c-5.931-2.897-11.207-7.006-17.382-9.469c-16.574-6.609-33.271-6.785-49.158,1.738
				c-11.421,6.1-22.658,12.602-35.55,14.806c-21.331,3.583-42.319,4.048-62.37-6.358c-22.2-11.589-38.218-28.933-50.225-50.568
				c-3.202-5.634-7.838-10.552-10.918-16.398c-12.93-25.403-23.313-51.621-30.823-79.219c-7.227-26.699-13.028-53.679-15.735-81.17
				c-3.323-33.545-1.014-66.652,9.903-98.728c7.243-21.133,18.062-40.334,34.598-55.684c18.281-16.871,39.415-27.438,64.924-28.757
				c12.03-0.61,23.983-0.542,35.739,0.923c21.331,2.657,39.813,11.958,56.211,25.897
				C373.45,312.825,380.281,321.459,387.723,329.948z"/>
			<path fill-rule="evenodd" clip-rule="evenodd" fill="#AA2023" d="M315.708,252.879c-63.85-1.391-118.45-24.11-162.432-70.748
				c-16.681-17.665-29.313-38.203-39.08-60.453c-1.249-2.855-0.457-3.918,2.272-4.734c30.145-8.813,60.708-12.152,92.064-8.359
				c41,4.913,77.809,19.742,110.423,44.774c27.46,21.061,48.243,47.504,62.804,78.933c0.945,1.982,1.083,4.063,1.228,6.122
				c0.291,2.905-0.938,4.567-4.048,5.455C363.28,248.363,336.909,253.368,315.708,252.879z"/>
			<path fill-rule="evenodd" clip-rule="evenodd" fill="#EEF0AF" d="M610.534,443.919c0.504,18.133-3.903,41-8.53,63.834
				c-3.47,17.123-8.014,33.987-13.435,50.538c-5.854,18.022-12.678,35.61-21.384,52.521c-7.586,14.66-16.147,28.611-27.24,41.069
				c-12.494,13.905-26.92,25.074-45.879,27.964c-18.93,2.744-37.715,1.158-54.365-9.21c-18.351-11.42-37.814-15.499-58.947-12.213
				c-10.125,1.624-18.938,6.503-27.644,11.42c-27.155,15.492-66.571,16.757-93.604-9.362
				c-17.688-17.198-30.221-37.715-40.589-59.785c-6.725-14.271-12.427-29.047-17.291-44.065
				c-5.581-17.42-10.093-35.046-13.737-52.993c-3.676-17.74-6.725-35.622-7.64-53.683c-1.067-20.992,0.268-41.797,5.627-62.134
				c6.205-23.568,15.75-45.373,33.361-62.911c16.024-16.002,35.474-23.858,57.728-25.448c18.997-1.41,37.554,1.011,54.966,9.229
				c20.913,9.9,36,25.921,46.65,46.364c3.362,6.595,6.29,13.369,8.089,20.611c1.014,3.846,4.27,6.053,8.387,6.248
				c4.985,0.271,7.623-2.977,8.736-6.972c2.82-9.972,7.266-18.999,12.648-27.632c19.287-31.303,47.533-46.925,84.097-48.118
				c14.951-0.469,29.397,1.464,43.243,7.262c17.732,7.422,31.379,19.795,41.503,35.927
				C603.848,371.76,610.603,404.237,610.534,443.919z"/>
			<path fill-rule="evenodd" clip-rule="evenodd" fill="#241F20" d="M385.298,512.739c-1.159,7.22-7.075,12.747-14.447,13.616
				c-9.103,1.044-16.079-3.004-19.601-11.604c-2.6-6.137-0.267-13.578,5.642-18.453c7.639-6.176,16.414-10.219,24.938-14.92
				c2.463-1.337,4.368-1.266,4.368,2.31c-0.061,5.531,0,11.021,0,16.472"/>
			<path fill-rule="evenodd" clip-rule="evenodd" fill="#241F20" d="M404.083,495.864c0-4.19,0-8.382,0-12.606
				c0-2.386,1.052-3.431,3.323-2.203c9.035,4.658,18.282,8.992,26.15,15.533c6.007,4.914,7.837,11.089,5.428,18.164
				c-2.104,6.511-6.938,10.551-13.73,11.527c-7.517,1.052-13.868-1.189-18.137-7.692c-3.537-5.451-2.821-11.848-3.4-17.886"/>
		</g>
	</g>
	<path fill-rule="evenodd" clip-rule="evenodd" fill="#AA2023" d="M1756.624,449.222c-2.734,2.196-5.495,6.1-8.189,6.047
		c-2.301-0.025-6.1-4.35-6.52-7.177c-1.302-8.755-1.328-17.693-3.484-27.184c-1.341,2.787-2.76,5.521-4.035,8.32
		c-2.472,5.377-5.007,10.739-7.27,16.208c-4.956,12.042-16.654,8.754-25.54,10.424c-7.795,1.459-12.961-5.403-15.484-12.211
		c-2.721-7.335-3.892-15.236-5.851-22.872c-1.208-4.707-2.603-9.359-4.494-16.037c-17.01,15.326-15.064,38.198-28.145,52.644
		c-0.88-0.131-1.747-0.262-2.642-0.393c0-5.772,0.474-11.583-0.092-17.299c-1.065-10.818-2.866-21.559-3.996-32.363
		c-0.276-2.604,0.895-5.35,1.406-8.019c1.866,2.038,4.916,3.825,5.416,6.151c1.708,8.137,2.537,16.484,5.48,25.488
		c1.618-2.602,3.352-5.112,4.798-7.781c3.221-5.954,5.705-12.396,9.57-17.877c5.625-7.94,10.173-7.571,13.815,1.367
		c2.604,6.414,2.746,13.774,4.838,20.452c2.063,6.6,4.416,13.382,8.188,19.062c1.736,2.588,7.243,3.706,10.91,3.482
		c1.484-0.091,3.497-5.48,3.799-8.597c1.59-16.51,5.271-31.915,19.758-42.26c2.496-1.788,5.376-3.247,8.294-4.153
		c10.108-3.156,13.461,0.393,11.908,10.752c-1.643,10.871-2.379,21.899-3.035,32.875c-0.368,6.085,1.131,11.305,10.122,8.637
		C1756.308,447.684,1756.465,448.46,1756.624,449.222z M1718.412,446.173c7.768-3.563,20.229-31.653,19.73-44.482
		C1722.842,404.661,1712.221,428.598,1718.412,446.173z"/>
	<path fill-rule="evenodd" clip-rule="evenodd" fill="#AA2023" d="M1298.68,423.866c2.104-21.808-2.352-44.351,5.469-66.697
		c1.38,1.615,2.314,2.208,2.274,2.747c-0.827,14.63-2.405,29.248-2.458,43.877c-0.026,9.201,2.379,18.39,3.313,27.631
		c0.695,6.835,0.763,13.724,1.116,20.585c-1.116,0.368-2.247,0.723-3.378,1.09c-16.299-25.25-32.611-50.489-48.925-75.74
		c-0.657,0.197-1.314,0.381-1.973,0.566c-0.973,9.332-2.419,18.639-2.786,27.998c-0.631,15.012-0.341,30.062-0.92,45.073
		c-0.132,3.564-2.209,7.046-4.549,9.792c0-13.17,0.159-26.341-0.053-39.5c-0.236-16.116-1.076-32.231-0.985-48.347
		c0.013-3.536,2.892-7.059,4.457-10.594c3.077,1.827,7.27,2.904,9.019,5.586c9.779,14.906,18.849,30.259,28.392,45.324
		c2.629,4.153,6.048,7.781,9.109,11.646C1296.762,424.563,1297.707,424.22,1298.68,423.866z"/>
	<path fill-rule="evenodd" clip-rule="evenodd" fill="#AA2023" d="M759.831,420.75c-8.229-0.552-15.024-0.998-21.836-1.445
		c0-1.157,0.015-2.313,0.028-3.457c4.548-0.407,9.148-1.459,13.618-1.066c9.227,0.842,13.143-3.64,15.301-12.001
		c4.074-15.879,8.82-31.587,13.394-47.334c0.906-3.129,2.313-6.125,5.613-9.32c1.078,3.221,2.655,6.349,3.168,9.636
		c1.879,12.014,3.378,24.083,5.087,36.123c1.419,9.95,3.51,10.974,12.75,6.295c3.786-1.919,7.388-4.232,11.278-5.888
		c2.523-1.078,5.429-1.302,8.176-1.906c0.329,0.998,0.659,1.998,1,2.983c-5.941,2.643-11.883,5.298-17.851,7.914
		c-12.12,5.311-12.305,5.35-9.214,17.851c2.169,8.768,5.111,17.339,7.399,26.093c0.789,3.089,0.632,6.44,0.921,9.662
		c-0.71,0.328-1.395,0.645-2.092,0.973c-3.838-4.588-7.399-9.452-11.579-13.684c-6.336-6.389-12.671-12.882-19.798-18.324
		c-6.255-4.784-10.303-3.209-12.671,4.444c-3.352,10.777-5.81,21.845-8.952,32.703c-0.933,3.221-2.903,6.152-4.402,9.215
		c-1.052-0.289-2.104-0.578-3.154-0.854c0.302-2.551,0.169-5.246,0.983-7.625c3.591-10.412,7.532-20.69,11.108-31.113
		C759.08,427.771,759.186,424.615,759.831,420.75z M786.095,362.597c-1.328,0.027-2.643,0.053-3.985,0.08
		c-4.599,15.59-9.226,31.179-13.828,46.769c0.659,0.58,1.342,1.157,1.999,1.735c5.72-1.972,11.567-3.614,17.063-6.048
		c1.919-0.854,4.416-3.81,4.22-5.519C790.09,387.23,787.999,374.927,786.095,362.597z M797.123,436.419
		c0.815-0.315,1.63-0.631,2.457-0.946c-1.577-7.835-2.984-15.721-4.916-23.49c-0.328-1.301-3.287-3.194-4.403-2.826
		c-6.126,1.946-12.067,4.521-19.376,7.4C780.954,424.181,789.038,430.307,797.123,436.419z"/>
	<path fill-rule="evenodd" clip-rule="evenodd" fill="#AA2023" d="M1805.103,465.087c-8.531,4.26-12.409,2.143-27.867-14.643
		c-9.544,10.475-18.509,21.518-28.736,31.233c-10.527,10.004-22.99,16.471-38.001,13.842c-0.407-0.973-0.802-1.92-1.197-2.891
		c2.367-1.146,4.878-3.498,7.086-3.248c16.59,1.932,26.62-8.754,37.029-18.678c3.666-3.512,6.992-7.43,10.148-11.412
		c6.52-8.255,11.856-15.116,8.018-28.353c-7.308-25.278-1.972-50.962,6.836-75.596c0.645-1.827,1.551-3.944,2.996-5.008
		c2.551-1.854,6.021-4.562,8.361-3.958c2.405,0.604,5.047,4.509,5.613,7.361c3.271,16.681,1.76,33.374-2.406,49.636
		c-3.129,12.238-7.979,24.029-11.699,36.135c-0.736,2.354-0.684,5.771,0.553,7.769
		C1787.186,456.031,1793.142,464.378,1805.103,465.087z M1790.932,351.24c-17.363,10.344-25,67.329-11.83,83.706
		C1790.959,407.973,1795.848,381.053,1790.932,351.24z"/>
	<path fill-rule="evenodd" clip-rule="evenodd" fill="#AA2023" d="M1396.636,462.55c-0.262-2.668-0.944-5.361-0.708-7.99
		c2.299-25.108,4.915-50.188,7.098-75.295c0.881-10.174,0-10.464-10.504-8.729c-6.361,1.052-12.829,1.788-19.27,1.945
		c-2.747,0.079-5.535-1.656-8.295-2.563c0-0.828,0-1.669,0-2.497c2.104-0.605,4.18-1.67,6.297-1.748
		c6.229-0.251,12.475-0.106,18.718-0.132c14.421-0.052,14.211-0.092,16.366-13.933c1.92-12.317,4.101-24.608,6.702-36.78
		c0.593-2.733,3.445-4.982,5.26-7.453c1.223,3.128,2.97,6.191,3.444,9.424c0.288,1.946-0.895,4.576-2.236,6.257
		c-7.781,9.964-8.912,21.716-9.857,33.678c-0.42,5.389,1.523,7.151,6.664,6.849c5.652-0.329,11.384-0.67,16.996-0.104
		c4.417,0.447,8.701,2.273,14.578,3.904c-11.318,0-20.56,0.17-29.786-0.054c-7.993-0.197-10.542,3.484-11.067,11.318
		c-1.842,27.145-4.444,54.223-6.797,81.329c-0.078,0.734-0.696,1.445-1.066,2.154
		C1398.333,462.261,1397.478,462.408,1396.636,462.55z"/>
	<path fill-rule="evenodd" clip-rule="evenodd" fill="#AA2023" d="M1169.361,449.643c-2.642,2.208-5.074,5.679-7.993,6.126
		c-1.84,0.289-5.744-3.642-6.31-6.218c-1.328-5.981-1.262-12.29-1.629-18.468c-0.171-2.984-0.025-5.995-0.025-8.992
		c-0.686-0.21-1.368-0.42-2.053-0.631c-1.55,3.286-3.024,6.612-4.693,9.833c-3.482,6.73-6.702,13.657-10.87,19.94
		c-1.34,2.012-5.73,3.602-8.017,2.958c-2.262-0.656-4.603-4.154-5.26-6.795c-3.865-15.59,7.467-41.709,21.295-49.648
		c2.406-1.38,5.18-2.286,7.899-2.932c8.834-2.09,11.397,0.578,10.371,9.504c-1.353,11.751-2.523,23.543-3.194,35.347
		c-0.327,5.68,1.197,10.857,9.872,7.624C1168.952,448.064,1169.149,448.854,1169.361,449.643z M1131.49,446.947
		c8.293-5.047,20.243-33.243,18.862-44.521C1134.606,407.368,1124.799,430.504,1131.49,446.947z"/>
	<path fill-rule="evenodd" clip-rule="evenodd" fill="#AA2023" d="M852.726,421.514c-5.562-0.632-8.86-0.579-11.91-1.421
		c-4.679-1.288-9.188-3.168-13.776-4.797c2.34-4.563,4.103-9.558,7.191-13.526c2.511-3.207,6.429-5.509,10.082-7.571
		c5.257-2.971,10.175-2.131,14.434,2.655c-5.691,2.576-11.252,4.561-16.208,7.571c-2.273,1.393-3.34,4.784-4.955,7.281
		c2.628,1.46,5.112,3.313,7.899,4.325c8.636,3.141,16.444,2.116,23.517-4.482c2.971-2.761,7.177-4.181,10.806-6.205
		c0.604,1.012,1.196,2.038,1.788,3.063c-3.853,2.314-7.6,4.851-11.608,6.9c-4.85,2.499-7.085,5.548-3.536,10.661
		c3.932,5.691,2.183,10.792-1.894,15.38c-7.492,8.452-16.154,15.235-28.049,15.313c-2.934,0.025-7.415-1.787-8.4-3.982
		c-1.038-2.34,0.329-6.926,2.234-9.161c4.378-5.114,9.767-9.334,14.683-13.987C847.152,427.507,849.084,425.326,852.726,421.514z
		 M837.097,450.931c10.397,0.369,23.438-8.635,25.985-17.482c1.684-5.89-1.155-9.74-6.268-8.466
		C849.32,426.822,837.464,442.123,837.097,450.931z"/>
	<path fill-rule="evenodd" clip-rule="evenodd" fill="#AA2023" d="M958.068,421.197c-5.468-0.63-11.028-0.934-16.431-1.998
		c-7.571-1.484-9.674-5.561-4.838-11.135c4.864-5.612,11.096-10.266,17.351-14.366c4.576-3.011,9.058-1.013,11.911,2.997
		c-5.915,3.154-12.04,5.495-17.037,9.308c-5.718,4.375-4.705,7.374,2.368,9.541c9.306,2.84,18.165,3.917,25.92-4.324
		c2.55-2.721,6.782-3.864,10.254-5.731c0.578,0.986,1.183,1.959,1.762,2.932c-3.288,2.038-6.441,4.312-9.885,6.047
		c-5.574,2.839-8.334,5.797-4.732,12.633c1.603,3.037,1.235,8.635-0.605,11.659c-5.783,9.621-14.957,15.602-25.896,17.627
		c-3.839,0.709-8.28-1.934-12.435-3.049c1.183-3.838,1.42-8.415,3.746-11.345c3.813-4.824,8.978-8.571,13.552-12.776
		c1.972-1.813,3.917-3.654,5.862-5.495C958.647,422.879,958.358,422.039,958.068,421.197z M972.041,428.032
		c-2.141-0.815-6.873-3.786-7.859-2.84c-6.875,6.52-13.079,13.777-19.126,21.124c-0.526,0.645,1.433,4.956,2.721,5.232
		C954.966,453.033,971.819,438.049,972.041,428.032z"/>
	<path fill-rule="evenodd" clip-rule="evenodd" fill="#AA2023" d="M1333.752,394.369c0,3.102,0,6.218,0.012,9.319
		c0.093,12.986-0.17,25.986,0.526,38.936c0.198,3.759,3.208,7.374,5.376,12.014c18.245-12.987,20.111-33.468,28.446-50.202
		c0.866,0.053,1.708,0.105,2.575,0.171c0,3.524,0.304,7.099-0.053,10.608c-0.88,8.427-2.313,16.812-2.97,25.252
		c-0.224,2.826,1.196,5.783,1.866,8.676c2.734-0.921,5.495-1.815,8.229-2.788c0.959-0.327,1.866-0.813,3.642-1.59
		c-0.185,8.203-5.93,12.501-11.029,12.001c-12.515-1.223-6.716-12.461-8.677-21.741c-2.693,3.312-4.705,5.245-6.045,7.57
		c-4.313,7.375-6.823,18.639-17.721,16.354c-10.476-2.223-8.36-13.489-8.807-21.493c-0.711-12.712-0.341-25.488-0.21-38.227
		c0.014-1.721,1.235-3.443,1.893-5.166C1331.793,394.171,1332.778,394.264,1333.752,394.369z"/>
	<path fill-rule="evenodd" clip-rule="evenodd" fill="#AA2023" d="M875.572,435.973c3.811-5.364,7.661-10.425,11.118-15.722
		c3.959-6.1,7.047-12.844,11.542-18.456c2.197-2.721,6.652-4.482,10.307-4.995c8.439-1.183,12.698,4.785,8.189,11.988
		c-3.338,5.312-8.728,9.386-13.422,13.777c-2.26,2.102-5.047,3.614-7.531,5.493c-4.902,3.693-9.176,7.533-6.954,14.814
		c2.024,6.639,5.232,12.146,12.33,13.751c6.993,1.574,12.172-2.145,15.696-7.718c5.007-7.938,9.489-16.221,14.484-24.87
		c1.314,13.947-10.7,32.864-22.819,36.752c-10.463,3.367-19.349-1.156-23.057-12.697
		C883.418,441.756,882.932,434.896,875.572,435.973z M890.504,424.642c10.976-2.38,21.531-13.053,21.084-20.743
		C901.137,402.847,891.885,411.654,890.504,424.642z"/>
	<path fill-rule="evenodd" clip-rule="evenodd" fill="#AA2023" d="M1093.251,448.618c-5.743,2.457-11.331,5.704-17.323,6.94
		c-2.024,0.42-5.759-3.904-7.416-6.797c-0.973-1.694,0.475-4.901,1.104-7.347c3.759-14.485-0.315-23.989-14.433-32.152
		c-6.94,19.586-19.271,35.215-34.427,48.728c-0.697-0.42-1.38-0.84-2.091-1.262c1.552-2.576,2.578-5.745,4.732-7.637
		c16.143-14.25,26.58-31.443,28.828-53.184c0.064-0.724,0.801-1.396,1.59-2.683c1.407,0.841,3.129,1.287,3.892,2.406
		c4.521,6.744,8.518,13.868,13.276,20.439c4.994,6.876,6.678,14.091,5.126,22.413c-0.632,3.43-0.132,7.085-0.144,10.633
		c3.455-0.551,6.94-1.012,10.383-1.669c1.854-0.355,3.654-1.013,5.481-1.538C1092.305,446.816,1092.779,447.724,1093.251,448.618z"
		/>
	<path fill-rule="evenodd" clip-rule="evenodd" fill="#AA2023" d="M1487.482,447.882c-4.694,2.234-9.217,4.917-14.106,6.584
		c-7.202,2.459-11.409-1.406-10.396-9.043c0.224-1.669,0.88-3.272,1.302-4.903c3.627-14.38-0.265-23.239-14.553-32.007
		c-6.77,19.677-19.1,35.268-34.452,48.598c-0.671-0.396-1.342-0.791-1.998-1.184c1.551-2.523,2.603-5.628,4.731-7.467
		c16.682-14.249,26.447-32.101,29.077-53.869c0.052-0.446,0.683-0.827,1.683-1.945c1.288,0.973,3.063,1.709,3.943,3.051
		c4.168,6.283,7.676,13.026,12.198,19.033c5.285,6.994,7.519,14.249,5.757,22.951c-0.696,3.404-0.064,7.072-0.038,10.635
		c3.47-0.486,6.952-0.88,10.397-1.474c1.84-0.301,3.603-0.958,5.402-1.459C1486.785,446.213,1487.127,447.052,1487.482,447.882z"/>
	<path fill-rule="evenodd" clip-rule="evenodd" fill="#AA2023" d="M1570.649,423.998c-10.109,10.804-16.826,24.961-32.114,30.667
		c-14.393,5.361-28.011-3.235-27.84-18.483c0.17-14.275,4.271-27.75,15.261-37.516c4.378-3.891,10.66-6.126,16.458-7.651
		c2.708-0.709,6.322,2.025,10.227,3.458c-1.866,2.091-2.393,2.931-2.591,2.852c-10.515-3.548-18.362,0.684-23.936,9.149
		c-6.888,10.49-13.146,21.637-8.834,34.9c3.05,9.385,12.12,13.828,20.335,8.557c9.084-5.836,16.576-14.157,24.699-21.452
		c2.261-2.037,4.338-4.312,6.493-6.468C1569.413,422.669,1570.045,423.326,1570.649,423.998z"/>
	<path fill-rule="evenodd" clip-rule="evenodd" fill="#AA2023" d="M1635.06,429.242c-1.735,13.577-13.816,25.791-25.593,25.5
		c-8.216-0.182-15.34-6.282-13.396-13.984c2.471-9.86,7.296-19.259,12.066-28.342c2.208-4.219,6.205-5.336,9.873,0.185
		c1.722,2.576,5.823,3.431,8.162,5.757C1629.473,421.656,1632.114,425.588,1635.06,429.242z M1627.594,431.87
		c0.185-6.151-4.996-12.275-10.451-12.355c-6.729-0.105-14.42,9.464-14.578,18.377c-0.091,5.126,0.922,9.859,7.335,10.357
		C1617.878,448.866,1627.355,439.968,1627.594,431.87z"/>
	<path fill-rule="evenodd" clip-rule="evenodd" fill="#AA2023" d="M1023.609,430.872c-2.59,11.922-13.066,23.293-23.424,24.817
		c-8.321,1.223-15.932-4.836-15.8-13.539c0.17-11.698,4.639-21.912,12.986-30.233c2.681-2.682,5.204-3.891,8.256,0.275
		c1.853,2.537,5.599,3.59,7.808,5.967C1017.116,422.117,1020.244,426.6,1023.609,430.872z M990.432,435.973
		c0.315,10.83,5.377,15.208,11.725,11.987c5.154-2.603,10.465-7.138,12.83-12.172c1.498-3.195-1.313-9.623-4.074-13.119
		c-1.5-1.932-8.492-2.445-10.214-0.762C995.953,426.573,992.68,432.738,990.432,435.973z"/>
	<path fill-rule="evenodd" clip-rule="evenodd" fill="#AA2023" d="M1580.034,397.011c2.077,21.373,2.444,42.695-1.893,63.858
		C1577.169,439.521,1573.91,418.096,1580.034,397.011z"/>
	<path fill-rule="evenodd" clip-rule="evenodd" fill="#AA2023" d="M1097.326,456.216c0.92-24.241,1.814-48.48,2.799-74.874
		c4.903,6.638,3.366,68.248-0.169,74.913C1099.074,456.242,1098.207,456.228,1097.326,456.216z"/>
	<path fill-rule="evenodd" clip-rule="evenodd" fill="#AA2023" d="M1491.004,462.277c-0.039-22.782-2.117-44.129,2.511-65.241
		C1498.431,405.002,1496.695,456.4,1491.004,462.277z"/>
	<path fill-rule="evenodd" clip-rule="evenodd" fill="#AA2023" d="M1111.996,353.896c-3.982,6.625-7.374,12.277-11.329,18.863
		C1100.008,361.335,1104.557,353.619,1111.996,353.896z"/>
	<g>
		<path fill="#64AB45" d="M742.633,560.124v-37.927h0.825L768.7,551.27v-29.072h3.738v37.927h-0.851l-25.036-28.719v28.719H742.633z
			"/>
		<path fill="#64AB45" d="M781.798,522.197h3.79v22.896c0,2.716,0.052,4.408,0.154,5.079c0.189,1.495,0.628,2.746,1.315,3.751
			c0.688,1.006,1.744,1.849,3.171,2.527s2.862,1.019,4.306,1.019c1.255,0,2.458-0.267,3.61-0.8c1.151-0.532,2.114-1.271,2.888-2.217
			s1.341-2.089,1.701-3.43c0.258-0.962,0.387-2.939,0.387-5.93v-22.896h3.79v22.896c0,3.386-0.331,6.123-0.992,8.212
			c-0.662,2.088-1.985,3.906-3.971,5.453s-4.388,2.32-7.206,2.32c-3.061,0-5.682-0.73-7.864-2.191s-3.645-3.395-4.383-5.802
			c-0.464-1.478-0.696-4.142-0.696-7.992V522.197z"/>
		<path fill="#64AB45" d="M812.479,525.91v-3.713h20.781v3.713h-8.457v34.214h-3.867V525.91H812.479z"/>
		<path fill="#64AB45" d="M838.933,522.197h7.555c4.211,0,7.064,0.173,8.56,0.517c2.252,0.517,4.082,1.622,5.492,3.317
			c1.409,1.694,2.114,3.781,2.114,6.26c0,2.065-0.486,3.882-1.457,5.447c-0.972,1.566-2.359,2.75-4.164,3.55
			c-1.805,0.801-4.297,1.209-7.477,1.227l13.639,17.609h-4.688l-13.641-17.609h-2.143v17.609h-3.79V522.197z M842.723,525.91v12.892
			l6.534,0.052c2.53,0,4.402-0.24,5.616-0.722s2.161-1.251,2.841-2.308c0.681-1.058,1.021-2.239,1.021-3.546
			c0-1.271-0.345-2.428-1.033-3.468s-1.593-1.783-2.712-2.23c-1.119-0.446-2.979-0.67-5.578-0.67H842.723z"/>
		<path fill="#64AB45" d="M870.232,522.197h3.791v37.927h-3.791V522.197z"/>
		<path fill="#64AB45" d="M900.772,521.243c5.745,0,10.552,1.917,14.422,5.75S921,535.544,921,541.147
			c0,5.553-1.932,10.262-5.793,14.129c-3.861,3.868-8.569,5.802-14.125,5.802c-5.624,0-10.371-1.925-14.241-5.775
			s-5.805-8.509-5.805-13.975c0-3.644,0.881-7.021,2.645-10.133c1.763-3.11,4.166-5.547,7.21-7.31
			C893.936,522.124,897.229,521.243,900.772,521.243z M900.94,524.931c-2.807,0-5.467,0.73-7.979,2.193
			c-2.515,1.462-4.477,3.432-5.889,5.908c-1.411,2.478-2.117,5.238-2.117,8.283c0,4.507,1.563,8.313,4.687,11.418
			c3.125,3.105,6.892,4.657,11.299,4.657c2.943,0,5.668-0.714,8.173-2.142s4.459-3.38,5.862-5.856
			c1.403-2.478,2.105-5.229,2.105-8.258c0-3.01-0.702-5.732-2.105-8.167c-1.403-2.434-3.379-4.382-5.927-5.844
			C906.501,525.661,903.798,524.931,900.94,524.931z M902.822,511.266h5.544l-7.606,7.94h-3.558L902.822,511.266z"/>
		<path fill="#64AB45" d="M928.605,522.197h3.79v34.266h14.593v3.661h-18.383V522.197z"/>
		<path fill="#64AB45" d="M971.058,521.243c5.745,0,10.552,1.917,14.422,5.75s5.806,8.551,5.806,14.154
			c0,5.553-1.932,10.262-5.793,14.129c-3.861,3.868-8.569,5.802-14.125,5.802c-5.624,0-10.371-1.925-14.241-5.775
			s-5.805-8.509-5.805-13.975c0-3.644,0.881-7.021,2.645-10.133c1.763-3.11,4.166-5.547,7.21-7.31
			C964.221,522.124,967.515,521.243,971.058,521.243z M971.226,524.931c-2.807,0-5.467,0.73-7.979,2.193
			c-2.515,1.462-4.477,3.432-5.889,5.908c-1.411,2.478-2.117,5.238-2.117,8.283c0,4.507,1.563,8.313,4.687,11.418
			c3.125,3.105,6.892,4.657,11.299,4.657c2.943,0,5.668-0.714,8.173-2.142s4.459-3.38,5.862-5.856
			c1.403-2.478,2.105-5.229,2.105-8.258c0-3.01-0.702-5.732-2.105-8.167c-1.403-2.434-3.379-4.382-5.927-5.844
			C976.786,525.661,974.083,524.931,971.226,524.931z"/>
		<path fill="#64AB45" d="M1035.477,528.565l-2.939,2.785c-2.114-2.08-4.431-3.657-6.948-4.731
			c-2.519-1.074-4.972-1.611-7.361-1.611c-2.974,0-5.806,0.73-8.495,2.191c-2.69,1.461-4.774,3.442-6.253,5.943
			c-1.479,2.5-2.217,5.144-2.217,7.928c0,2.854,0.765,5.565,2.295,8.135c1.529,2.569,3.644,4.589,6.342,6.059
			c2.699,1.47,5.655,2.205,8.87,2.205c3.901,0,7.201-1.101,9.9-3.301c2.698-2.2,4.297-5.054,4.796-8.56h-12.093v-3.661h16.347
			c-0.034,5.861-1.775,10.516-5.221,13.961c-3.447,3.446-8.058,5.17-13.833,5.17c-7.013,0-12.565-2.389-16.655-7.168
			c-3.146-3.678-4.719-7.933-4.719-12.763c0-3.592,0.902-6.936,2.707-10.029s4.28-5.513,7.426-7.258
			c3.146-1.744,6.703-2.617,10.674-2.617c3.214,0,6.239,0.58,9.076,1.74C1030.011,524.144,1032.778,526.005,1035.477,528.565z"/>
		<path fill="#64AB45" d="M1060.434,522.197l17.688,37.927h-4.094l-5.965-12.479h-16.339l-5.908,12.479h-4.229l17.919-37.927
			H1060.434z M1059.955,530.255l-6.499,13.729h12.967L1059.955,530.255z"/>
		<path fill="#64AB45" d="M1096.892,560.124l5.43-37.927h0.616l15.418,31.12l15.271-31.12h0.607l5.458,37.927h-3.717L1132.228,533
			l-13.41,27.124h-0.969l-13.57-27.33l-3.726,27.33H1096.892z"/>
		<path fill="#64AB45" d="M1162.638,522.197l17.688,37.927h-4.094l-5.965-12.479h-16.339l-5.908,12.479h-4.229l17.919-37.927
			H1162.638z M1162.159,530.255l-6.499,13.729h12.967L1162.159,530.255z"/>
		<path fill="#64AB45" d="M1186.41,522.197h7.555c4.211,0,7.064,0.173,8.56,0.517c2.252,0.517,4.082,1.622,5.492,3.317
			c1.409,1.694,2.114,3.781,2.114,6.26c0,2.065-0.486,3.882-1.457,5.447c-0.972,1.566-2.359,2.75-4.164,3.55
			c-1.805,0.801-4.297,1.209-7.477,1.227l13.639,17.609h-4.688l-13.641-17.609h-2.143v17.609h-3.79V522.197z M1190.2,525.91v12.892
			l6.534,0.052c2.53,0,4.402-0.24,5.616-0.722s2.161-1.251,2.841-2.308c0.681-1.058,1.021-2.239,1.021-3.546
			c0-1.271-0.345-2.428-1.033-3.468s-1.593-1.783-2.712-2.23c-1.119-0.446-2.979-0.67-5.578-0.67H1190.2z"/>
		<path fill="#64AB45" d="M1217.71,522.197h3.791v37.927h-3.791V522.197z"/>
		<path fill="#64AB45" d="M1245.685,522.197l17.688,37.927h-4.094l-5.965-12.479h-16.339l-5.908,12.479h-4.229l17.919-37.927
			H1245.685z M1245.206,530.255l-6.499,13.729h12.967L1245.206,530.255z"/>
		<path fill="#64AB45" d="M1269.276,560.124v-37.927h0.825l25.242,29.072v-29.072h3.738v37.927h-0.851l-25.036-28.719v28.719
			H1269.276z"/>
		<path fill="#64AB45" d="M1323.808,522.197l17.688,37.927h-4.094l-5.965-12.479h-16.339l-5.908,12.479h-4.229l17.919-37.927
			H1323.808z M1323.329,530.255l-6.499,13.729h12.967L1323.329,530.255z"/>
		<path fill="#64AB45" d="M1398.578,528.565l-2.939,2.785c-2.114-2.08-4.431-3.657-6.948-4.731
			c-2.519-1.074-4.972-1.611-7.361-1.611c-2.974,0-5.806,0.73-8.495,2.191c-2.69,1.461-4.774,3.442-6.253,5.943
			c-1.479,2.5-2.217,5.144-2.217,7.928c0,2.854,0.765,5.565,2.295,8.135c1.529,2.569,3.644,4.589,6.342,6.059
			c2.699,1.47,5.655,2.205,8.87,2.205c3.901,0,7.201-1.101,9.9-3.301c2.698-2.2,4.297-5.054,4.796-8.56h-12.093v-3.661h16.347
			c-0.034,5.861-1.775,10.516-5.221,13.961c-3.447,3.446-8.058,5.17-13.833,5.17c-7.013,0-12.565-2.389-16.655-7.168
			c-3.146-3.678-4.719-7.933-4.719-12.763c0-3.592,0.902-6.936,2.707-10.029s4.28-5.513,7.426-7.258
			c3.146-1.744,6.703-2.617,10.674-2.617c3.214,0,6.239,0.58,9.076,1.74C1393.112,524.144,1395.88,526.005,1398.578,528.565z"/>
		<path fill="#64AB45" d="M1423.536,522.197l17.688,37.927h-4.094l-5.965-12.479h-16.339l-5.908,12.479h-4.229l17.919-37.927
			H1423.536z M1423.058,530.255l-6.499,13.729h12.967L1423.058,530.255z"/>
		<path fill="#64AB45" d="M1447.308,522.197h7.555c4.211,0,7.064,0.173,8.56,0.517c2.252,0.517,4.082,1.622,5.492,3.317
			c1.409,1.694,2.114,3.781,2.114,6.26c0,2.065-0.486,3.882-1.457,5.447c-0.972,1.566-2.359,2.75-4.164,3.55
			c-1.805,0.801-4.297,1.209-7.477,1.227l13.639,17.609h-4.688l-13.641-17.609h-2.143v17.609h-3.79V522.197z M1451.098,525.91
			v12.892l6.534,0.052c2.53,0,4.402-0.24,5.616-0.722s2.161-1.251,2.841-2.308c0.681-1.058,1.021-2.239,1.021-3.546
			c0-1.271-0.345-2.428-1.033-3.468s-1.593-1.783-2.712-2.23c-1.119-0.446-2.979-0.67-5.578-0.67H1451.098z"/>
		<path fill="#64AB45" d="M1514.473,529.236l-2.99,2.294c-1.65-2.148-3.632-3.776-5.943-4.886c-2.312-1.108-4.852-1.663-7.619-1.663
			c-3.025,0-5.826,0.727-8.405,2.179c-2.578,1.453-4.576,3.403-5.994,5.854c-1.418,2.449-2.127,5.204-2.127,8.263
			c0,4.624,1.586,8.482,4.757,11.577c3.171,3.094,7.172,4.641,12.002,4.641c5.312,0,9.755-2.079,13.33-6.239l2.99,2.269
			c-1.891,2.407-4.25,4.268-7.077,5.582c-2.827,1.315-5.986,1.973-9.476,1.973c-6.635,0-11.868-2.209-15.701-6.626
			c-3.215-3.73-4.821-8.233-4.821-13.511c0-5.552,1.946-10.223,5.84-14.013c3.893-3.79,8.77-5.686,14.632-5.686
			c3.54,0,6.737,0.7,9.591,2.102S1512.651,526.709,1514.473,529.236z"/>
		<path fill="#64AB45" d="M1525.199,511.266h5.543l-7.606,7.94h-3.558L1525.199,511.266z M1521.537,522.197h3.791v37.927h-3.791
			V522.197z"/>
		<path fill="#64AB45" d="M1549.512,522.197l17.688,37.927h-4.094l-5.965-12.479h-16.339l-5.908,12.479h-4.229l17.919-37.927
			H1549.512z M1549.033,530.255l-6.499,13.729h12.967L1549.033,530.255z"/>
		<path fill="#64AB45" d="M1583.777,553.06l3.223-1.934c2.269,4.177,4.89,6.265,7.864,6.265c1.271,0,2.466-0.296,3.583-0.889
			c1.117-0.594,1.969-1.389,2.553-2.386c0.584-0.996,0.877-2.054,0.877-3.171c0-1.271-0.43-2.518-1.289-3.738
			c-1.187-1.685-3.352-3.713-6.497-6.085c-3.163-2.389-5.131-4.116-5.904-5.183c-1.341-1.787-2.012-3.721-2.012-5.801
			c0-1.65,0.396-3.154,1.187-4.513c0.79-1.357,1.903-2.427,3.339-3.21c1.435-0.781,2.994-1.173,4.68-1.173
			c1.787,0,3.459,0.442,5.015,1.328s3.201,2.514,4.938,4.886l-3.094,2.346c-1.428-1.891-2.644-3.136-3.648-3.738
			c-1.006-0.602-2.102-0.902-3.288-0.902c-1.529,0-2.78,0.464-3.751,1.393c-0.972,0.928-1.457,2.071-1.457,3.429
			c0,0.825,0.172,1.625,0.516,2.398s0.972,1.615,1.883,2.526c0.498,0.481,2.131,1.745,4.898,3.79
			c3.283,2.424,5.534,4.581,6.755,6.472s1.831,3.79,1.831,5.698c0,2.75-1.044,5.14-3.133,7.167
			c-2.089,2.029-4.628,3.043-7.619,3.043c-2.304,0-4.392-0.615-6.265-1.844C1587.086,558.006,1585.358,555.947,1583.777,553.06z"/>
		<path fill="#64AB45" d="M1629.49,522.197l17.688,37.927h-4.094l-5.965-12.479h-16.339l-5.908,12.479h-4.229l17.919-37.927H1629.49
			z M1629.012,530.255l-6.499,13.729h12.967L1629.012,530.255z"/>
		<path fill="#64AB45" d="M1653.263,522.197h7.555c4.211,0,7.064,0.173,8.56,0.517c2.252,0.517,4.082,1.622,5.492,3.317
			c1.409,1.694,2.114,3.781,2.114,6.26c0,2.065-0.486,3.882-1.457,5.447c-0.972,1.566-2.359,2.75-4.164,3.55
			c-1.805,0.801-4.297,1.209-7.477,1.227l13.639,17.609h-4.688l-13.641-17.609h-2.143v17.609h-3.79V522.197z M1657.053,525.91
			v12.892l6.534,0.052c2.53,0,4.402-0.24,5.616-0.722s2.161-1.251,2.841-2.308c0.681-1.058,1.021-2.239,1.021-3.546
			c0-1.271-0.345-2.428-1.033-3.468s-1.593-1.783-2.712-2.23c-1.119-0.446-2.979-0.67-5.578-0.67H1657.053z"/>
		<path fill="#64AB45" d="M1716.889,556.004l5.627,7.111h-4.667l-3.861-4.903c-3.099,1.911-6.588,2.866-10.468,2.866
			c-5.615,0-10.355-1.925-14.219-5.775s-5.795-8.509-5.795-13.975c0-3.644,0.885-7.025,2.653-10.146
			c1.77-3.12,4.179-5.557,7.228-7.31c3.05-1.753,6.395-2.63,10.036-2.63c5.617,0,10.354,1.921,14.21,5.763
			c3.856,3.842,5.785,8.564,5.785,14.168c0,2.922-0.528,5.595-1.586,8.019C1720.775,551.615,1719.127,553.886,1716.889,556.004z
			 M1714.543,553.038c3.304-3.217,4.956-7.183,4.956-11.898c0-3.011-0.7-5.734-2.102-8.169c-1.401-2.436-3.373-4.384-5.917-5.847
			c-2.544-1.462-5.226-2.193-8.044-2.193c-2.837,0-5.51,0.727-8.019,2.181c-2.51,1.453-4.47,3.423-5.879,5.908
			s-2.114,5.251-2.114,8.296c0,4.507,1.556,8.313,4.667,11.418c3.11,3.105,6.866,4.657,11.267,4.657c3.008,0,5.76-0.73,8.255-2.194
			l-8.446-10.723h4.601L1714.543,553.038z"/>
		<path fill="#64AB45" d="M1731.23,522.197h3.79v22.896c0,2.716,0.052,4.408,0.154,5.079c0.189,1.495,0.628,2.746,1.315,3.751
			c0.688,1.006,1.744,1.849,3.171,2.527s2.862,1.019,4.306,1.019c1.255,0,2.458-0.267,3.61-0.8c1.151-0.532,2.114-1.271,2.888-2.217
			s1.341-2.089,1.701-3.43c0.258-0.962,0.387-2.939,0.387-5.93v-22.896h3.79v22.896c0,3.386-0.331,6.123-0.992,8.212
			c-0.662,2.088-1.985,3.906-3.971,5.453s-4.388,2.32-7.206,2.32c-3.061,0-5.682-0.73-7.864-2.191s-3.645-3.395-4.383-5.802
			c-0.464-1.478-0.696-4.142-0.696-7.992V522.197z"/>
		<path fill="#64AB45" d="M1765.135,522.197h3.791v37.927h-3.791V522.197z"/>
		<path fill="#64AB45" d="M1776.145,525.858v-3.661h20.008l-15.845,34.214h15.045v3.713h-20.909l15.981-34.266H1776.145z"/>
	</g>
</g>
</svg>
